<mxfile host="app.diagrams.net" modified="2023-11-21T06:57:53.262Z" agent="Mozilla/5.0 (Windows NT 10.0; Win64; x64) AppleWebKit/537.36 (KHTML, like Gecko) Chrome/119.0.0.0 Safari/537.36" version="22.1.3" etag="21V4IsF61_jbsa4qNA3h" type="github">
  <diagram name="Page-1" id="C9dIUI2h7I_nMpQ5BKtT">
    <mxGraphModel>
      <root>
        <mxCell id="0" />
        <mxCell id="1" parent="0" />
      </root>
    </mxGraphModel>
  </diagram>
</mxfile>
